# xmcd
#
# Track frame offsets:
#	150
#	13531
#	25513
#	40385
#	50635
#	65801
#	77612
#	92160
#	108756
#	121678
#	136100
#	149378
#
# Disc length: 2104 seconds
#
# Revision: 0
# Processed by: cddbd v1.5.2PL0 Copyright (c) Steve Scherf et al.
# Submitted via: dBpowerAMP V4.0
#
DISCID=9608360c
DTITLE=Birch Mountain Band - Petals From The Roses
DYEAR=2005
DGENRE=Bluegrass
TTITLE0=The Petals From The Roses
TTITLE1=Another Empty Night
TTITLE2=Turning Tomorrow Into Yesterday
TTITLE3=Keely's Tune
TTITLE4=I Hope It's Not Goodbye
TTITLE5=If You Were There
TTITLE6=Schooner Mary Catherine
TTITLE7=Mary Dear
TTITLE8=Heavenly Road
TTITLE9=Westphalia Waltz
TTITLE10=Spirit Of A Soldier
TTITLE11=Walkin' The Dog
EXTD=
EXTT0=
EXTT1=
EXTT2=
EXTT3=
EXTT4=
EXTT5=
EXTT6=
EXTT7=
EXTT8=
EXTT9=
EXTT10=
EXTT11=
PLAYORDER=
